<svg xmlns="http://www.w3.org/2000/svg" width="880" height="220" viewBox="0 0 880 220" role="img" aria-labelledby="title desc"><title id="title">Understand effective access</title><desc id="desc">A valid credential does not automatically grant access to a resource.</desc>
<rect width="880" height="220" rx="20" fill="#101c29"/>
<path d="M28 34h25" stroke="#6ee7b7" stroke-width="3" stroke-linecap="round"/>
<text x="66" y="39" fill="#e8f0fa" font-family="system-ui,sans-serif" font-size="16" font-weight="650">Understand effective access</text>
<path d="M0 193H880" stroke="#233244"/>
<rect x="28" y="70" width="176" height="92" rx="12" fill="#172637" stroke="#354b60"/><circle cx="52" cy="95" r="11" fill="#6ee7b7"/><text x="52" y="99" text-anchor="middle" fill="#101c29" font-family="system-ui,sans-serif" font-size="11" font-weight="700">1</text><text x="44" y="125" fill="#f1f5f9" font-family="system-ui,sans-serif" font-size="16" font-weight="650">Identity</text><text x="44" y="147" fill="#b7c9da" font-family="system-ui,sans-serif" font-size="12">Which account?</text>
<path d="M210 115h26m-6-5 6 5-6 5" fill="none" stroke="#6ee7b7" stroke-width="2" stroke-linecap="round" stroke-linejoin="round"/>
<rect x="244" y="70" width="176" height="92" rx="12" fill="#172637" stroke="#354b60"/><circle cx="268" cy="95" r="11" fill="#6ee7b7"/><text x="268" y="99" text-anchor="middle" fill="#101c29" font-family="system-ui,sans-serif" font-size="11" font-weight="700">2</text><text x="260" y="125" fill="#f1f5f9" font-family="system-ui,sans-serif" font-size="16" font-weight="650">Membership</text><text x="260" y="147" fill="#b7c9da" font-family="system-ui,sans-serif" font-size="12">Groups and token</text>
<path d="M426 115h26m-6-5 6 5-6 5" fill="none" stroke="#6ee7b7" stroke-width="2" stroke-linecap="round" stroke-linejoin="round"/>
<rect x="460" y="70" width="176" height="92" rx="12" fill="#172637" stroke="#354b60"/><circle cx="484" cy="95" r="11" fill="#6ee7b7"/><text x="484" y="99" text-anchor="middle" fill="#101c29" font-family="system-ui,sans-serif" font-size="11" font-weight="700">3</text><text x="476" y="125" fill="#f1f5f9" font-family="system-ui,sans-serif" font-size="16" font-weight="650">Permissions</text><text x="476" y="147" fill="#b7c9da" font-family="system-ui,sans-serif" font-size="12">Rights on the object</text>
<path d="M642 115h26m-6-5 6 5-6 5" fill="none" stroke="#6ee7b7" stroke-width="2" stroke-linecap="round" stroke-linejoin="round"/>
<rect x="676" y="70" width="176" height="92" rx="12" fill="#172637" stroke="#354b60"/><circle cx="700" cy="95" r="11" fill="#6ee7b7"/><text x="700" y="99" text-anchor="middle" fill="#101c29" font-family="system-ui,sans-serif" font-size="11" font-weight="700">4</text><text x="692" y="125" fill="#f1f5f9" font-family="system-ui,sans-serif" font-size="16" font-weight="650">Access</text><text x="692" y="147" fill="#b7c9da" font-family="system-ui,sans-serif" font-size="12">Test the exact service</text>
<text x="28" y="211" fill="#b7c9da" font-family="system-ui,sans-serif" font-size="12">A valid credential does not automatically grant access to a resource.</text></svg>